<?xml version="1.0" encoding="UTF-8"?><svg id="Layer_2" xmlns="http://www.w3.org/2000/svg" xmlns:xlink="http://www.w3.org/1999/xlink" viewBox="0 0 131.85 21.6"><defs><style>.cls-1{fill:url(#linear-gradient-3);}.cls-2{fill:url(#linear-gradient-2);}.cls-3{fill:url(#linear-gradient);}.cls-4{fill:#fff;}</style><linearGradient id="linear-gradient" x1="0" y1="16.48" x2="9.5" y2="16.48" gradientUnits="userSpaceOnUse"><stop offset="0" stop-color="#44f5a0"/><stop offset="1" stop-color="#1d603f"/></linearGradient><linearGradient id="linear-gradient-2" x1="7.57" y1="10.62" x2="24.58" y2="10.62" xlink:href="#linear-gradient"/><linearGradient id="linear-gradient-3" x1="23.02" y1="10.62" x2="40.02" y2="10.62" xlink:href="#linear-gradient"/></defs><g id="Layer_1-2"><rect class="cls-3" y="11.73" width="9.5" height="9.5"/><polygon class="cls-2" points="24.58 21.24 7.57 9.5 7.57 0 24.58 11.73 24.58 21.24"/><polygon class="cls-1" points="40.02 21.24 23.02 9.5 23.02 0 40.02 11.73 40.02 21.24"/><polygon class="cls-4" points="68.61 5.6 68.61 21.22 66.27 21.22 66.27 9.19 59.85 18.38 53.45 9.2 53.45 21.22 51.12 21.22 51.12 5.6 53.47 5.6 59.85 14.67 66.26 5.6 68.61 5.6"/><path class="cls-4" d="M83.38,9.59c-1.12-1.26-2.6-1.89-4.38-1.89-1.9,0-3.5.64-4.73,1.93-1.22,1.27-1.85,2.98-1.85,5.07v.1c0,2.03.62,3.67,1.85,4.9,1.22,1.23,2.83,1.86,4.77,1.86,2.17,0,3.95-.78,5.32-2.32l.11-.13-1.5-1.46-.13.13c-.57.6-1.13,1.05-1.69,1.33-.55.25-1.26.39-2.11.39-1.29,0-2.35-.39-3.14-1.19-.74-.76-1.16-1.79-1.25-3.08h10.37v-.17c0-.06.01-.14.01-.27.01-.13.01-.22.01-.29v-.25c0-1.85-.56-3.42-1.68-4.66ZM74.8,13.23c.1-.91.53-1.71,1.29-2.37.81-.71,1.79-1.06,2.91-1.06,1.01,0,1.89.36,2.62,1.06.67.67,1.05,1.46,1.08,2.37h-7.89Z"/><path class="cls-4" d="M94.07,7.88c-1.77,0-3.09.63-3.94,1.88v-1.68h-2.23v13.14h2.23v-7.82c0-1.01.32-1.85.96-2.48s1.48-.95,2.49-.95,1.78.3,2.34.89c.56.59.84,1.4.84,2.42v7.94h2.23v-8.35c0-1.48-.45-2.69-1.33-3.61-.88-.92-2.09-1.39-3.59-1.39Z"/><path class="cls-4" d="M104.6,10.18v6.4c0,1.72.8,2.55,2.42,2.55h.56v2.1h-.66c-.57,0-1.09-.04-1.53-.14-.45-.1-.92-.29-1.43-.57-.5-.31-.91-.78-1.19-1.46-.27-.63-.41-1.44-.41-2.39V5.6h2.23v2.48h2.98v2.1h-2.98Z"/><path class="cls-4" d="M116.31,7.88c-.96,0-1.8.22-2.52.66-.51.32-.93.71-1.24,1.19v-1.65h-2.23v13.14h2.23v-7.61c0-1.01.31-1.85.93-2.48.62-.64,1.39-.95,2.35-.95.46,0,.87.04,1.23.12l.21.05v-2.4l-.15-.02c-.24-.03-.52-.05-.81-.05Z"/><path class="cls-4" d="M129.61,8.08v1.51c-.35-.45-.83-.85-1.4-1.19-.8-.48-1.79-.7-2.97-.7-1.85,0-3.43.66-4.72,1.97-1.27,1.32-1.93,3-1.93,4.98s.66,3.65,1.93,4.97c1.27,1.32,2.87,1.97,4.72,1.97,1.18,0,2.17-.22,2.97-.7.57-.34,1.05-.73,1.4-1.19v1.51h2.24v-13.14h-2.24ZM128.53,18.13c-.87.91-1.97,1.37-3.29,1.37s-2.32-.46-3.15-1.37c-.84-.92-1.27-2.09-1.27-3.47s.43-2.56,1.27-3.49c.83-.91,1.89-1.37,3.15-1.37s2.42.46,3.29,1.39c.87.91,1.32,2.09,1.32,3.47s-.45,2.55-1.32,3.47Z"/></g></svg>