<?xml version="1.0" encoding="UTF-8"?><svg id="Layer_2" xmlns="http://www.w3.org/2000/svg" xmlns:xlink="http://www.w3.org/1999/xlink" viewBox="0 0 187.77 60.96"><defs><style>.cls-1{fill:url(#linear-gradient-4);}.cls-2{fill:url(#linear-gradient-3);}.cls-3{fill:url(#linear-gradient-2);}.cls-4{fill:url(#linear-gradient);}.cls-5{fill:#fff;}</style><linearGradient id="linear-gradient" x1="-119.68" y1="-32.03" x2="137.85" y2="43.35" gradientUnits="userSpaceOnUse"><stop offset="0" stop-color="#44f5a0"/><stop offset=".03" stop-color="#40ea98"/><stop offset=".24" stop-color="#2da36b"/><stop offset=".44" stop-color="#1d6944"/><stop offset=".62" stop-color="#103b27"/><stop offset=".78" stop-color="#071b11"/><stop offset=".91" stop-color="#020704"/><stop offset="1" stop-color="#000"/></linearGradient><linearGradient id="linear-gradient-2" x1="29.59" y1="35.78" x2="39.1" y2="35.78" gradientUnits="userSpaceOnUse"><stop offset="0" stop-color="#44f5a0"/><stop offset="1" stop-color="#1d603f"/></linearGradient><linearGradient id="linear-gradient-3" x1="37.16" y1="29.91" x2="54.17" y2="29.91" xlink:href="#linear-gradient-2"/><linearGradient id="linear-gradient-4" x1="52.61" y1="29.91" x2="69.61" y2="29.91" xlink:href="#linear-gradient-2"/></defs><g id="Layer_1-2"><rect class="cls-4" width="187.77" height="60.96"/><rect class="cls-3" x="29.59" y="31.02" width="9.5" height="9.5"/><polygon class="cls-2" points="54.17 40.53 37.16 28.8 37.16 19.29 54.17 31.02 54.17 40.53"/><polygon class="cls-1" points="69.61 40.53 52.61 28.8 52.61 19.29 69.61 31.02 69.61 40.53"/><polygon class="cls-5" points="98.2 24.89 98.2 40.51 95.87 40.51 95.87 28.48 89.44 37.67 83.04 28.49 83.04 40.51 80.71 40.51 80.71 24.89 83.06 24.89 89.44 33.96 95.85 24.89 98.2 24.89"/><path class="cls-5" d="M112.97,28.88c-1.12-1.26-2.6-1.89-4.38-1.89-1.9,0-3.5.64-4.73,1.93-1.22,1.27-1.85,2.98-1.85,5.07v.1c0,2.03.62,3.67,1.85,4.9,1.22,1.23,2.83,1.86,4.77,1.86,2.17,0,3.95-.78,5.32-2.32l.11-.13-1.5-1.46-.13.13c-.57.6-1.13,1.05-1.69,1.33-.55.25-1.26.39-2.11.39-1.29,0-2.35-.39-3.14-1.19-.74-.76-1.16-1.79-1.25-3.08h10.37v-.17c0-.06.01-.14.01-.27.01-.13.01-.22.01-.29v-.25c0-1.85-.56-3.42-1.68-4.66ZM104.39,32.52c.1-.91.53-1.71,1.29-2.37.81-.71,1.79-1.06,2.91-1.06,1.01,0,1.89.36,2.62,1.06.67.67,1.05,1.46,1.08,2.37h-7.89Z"/><path class="cls-5" d="M123.66,27.17c-1.77,0-3.09.63-3.94,1.88v-1.68h-2.23v13.14h2.23v-7.82c0-1.01.32-1.85.96-2.48s1.48-.95,2.49-.95,1.78.3,2.34.89c.56.59.84,1.4.84,2.42v7.94h2.23v-8.35c0-1.48-.45-2.69-1.33-3.61-.88-.92-2.09-1.39-3.59-1.39Z"/><path class="cls-5" d="M134.19,29.47v6.4c0,1.72.8,2.55,2.42,2.55h.56v2.1h-.66c-.57,0-1.09-.04-1.53-.14-.45-.1-.92-.29-1.43-.57-.5-.31-.91-.78-1.19-1.46-.27-.63-.41-1.44-.41-2.39v-11.06h2.23v2.48h2.98v2.1h-2.98Z"/><path class="cls-5" d="M145.9,27.17c-.96,0-1.8.22-2.52.66-.51.32-.93.71-1.24,1.19v-1.65h-2.23v13.14h2.23v-7.61c0-1.01.31-1.85.93-2.48.62-.64,1.39-.95,2.35-.95.46,0,.87.04,1.23.12l.21.05v-2.4l-.15-.02c-.24-.03-.52-.05-.81-.05Z"/><path class="cls-5" d="M159.2,27.37v1.51c-.35-.45-.83-.85-1.4-1.19-.8-.48-1.79-.7-2.97-.7-1.85,0-3.43.66-4.72,1.97-1.27,1.32-1.93,3-1.93,4.98s.66,3.65,1.93,4.97c1.27,1.32,2.87,1.97,4.72,1.97,1.18,0,2.17-.22,2.97-.7.57-.34,1.05-.73,1.4-1.19v1.51h2.24v-13.14h-2.24ZM158.12,37.42c-.87.91-1.97,1.37-3.29,1.37s-2.32-.46-3.15-1.37c-.84-.92-1.27-2.09-1.27-3.47s.43-2.56,1.27-3.49c.83-.91,1.89-1.37,3.15-1.37s2.42.46,3.29,1.39c.87.91,1.32,2.09,1.32,3.47s-.45,2.55-1.32,3.47Z"/></g></svg>